<?xml version="1.0" standalone="no"?><!DOCTYPE svg PUBLIC "-//W3C//DTD SVG 1.1//EN" "http://www.w3.org/Graphics/SVG/1.1/DTD/svg11.dtd"><svg t="1709817336698" class="icon" viewBox="0 0 1024 1024" version="1.1" xmlns="http://www.w3.org/2000/svg" p-id="5905" xmlns:xlink="http://www.w3.org/1999/xlink" width="32" height="32"><path d="M170.666667 347.861333V213.333333h682.666666v597.333334h-219.861333c4.266667 27.818667 6.528 56.32 6.528 85.333333h256a42.666667 42.666667 0 0 0 42.666667-42.666667V170.666667a42.666667 42.666667 0 0 0-42.666667-42.666667H128a42.666667 42.666667 0 0 0-42.666667 42.666667v170.666666c29.013333 0 57.514667 2.218667 85.333334 6.528zM85.333333 768a128 128 0 0 1 128 128H85.333333v-128z" fill="#ffffff" p-id="5906"></path><path d="M85.333333 426.666667c259.2 0 469.333333 210.133333 469.333334 469.333333h-85.333334a384 384 0 0 0-384-384v-85.333333z" fill="#ffffff" p-id="5907"></path><path d="M85.333333 597.333333a298.666667 298.666667 0 0 1 298.666667 298.666667H298.666667a213.333333 213.333333 0 0 0-213.333334-213.333333v-85.333334z" fill="#ffffff" p-id="5908"></path></svg>