<?xml version="1.0" standalone="no"?><!DOCTYPE svg PUBLIC "-//W3C//DTD SVG 1.1//EN" "http://www.w3.org/Graphics/SVG/1.1/DTD/svg11.dtd"><svg t="1709816699562" class="icon" viewBox="0 0 1025 1024" version="1.1" xmlns="http://www.w3.org/2000/svg" p-id="6898" xmlns:xlink="http://www.w3.org/1999/xlink" width="32.03125" height="32"><path d="M523.795 615.317a20.7 20.7 0 0 1 5.216 5.215l107.457 154.973c6.514 9.395 4.18 22.291-5.216 28.806A20.7 20.7 0 0 1 619.457 808H404.543c-11.433 0-20.7-9.268-20.7-20.7a20.7 20.7 0 0 1 3.689-11.795l107.457-154.973c6.515-9.394 19.411-11.73 28.806-5.215zM847.65 150c60.832 0 109.372 51.556 110.336 114.546l0.015 1.912v356.084c0 63.217-47.932 115.405-108.51 116.442l-1.84 0.016H645.795L528.633 580.842a20.7 20.7 0 0 0-3.868-3.974l-0.443-0.338c-9.086-6.73-21.866-4.916-28.729 4.012l-0.226 0.3L378.203 739H176.351c-60.832 0-109.372-51.556-110.336-114.546L66 622.542V266.458c0-63.217 47.932-115.405 108.51-116.442l1.84-0.016h671.3zM363.775 516.911c-9.676 8.227-10.856 22.747-2.636 32.431 8.22 9.684 22.73 10.865 32.405 2.638 76.547-65.082 145.915-68.249 223.786-0.203 9.565 8.357 24.088 7.373 32.438-2.199 8.351-9.572 7.367-24.106-2.197-32.464-95.836-83.743-190.63-79.415-283.796-0.203zM249.247 392.588c-9.661 8.245-10.815 22.767-2.577 32.436s22.748 10.824 32.41 2.58c153.102-130.646 296.488-137.217 452.715-0.204 9.55 8.374 24.074 7.416 32.442-2.14 8.368-9.557 7.41-24.093-2.138-32.468-174.215-152.787-343.11-145.048-512.852-0.204z" fill="#ffffff" p-id="6899"></path></svg>