<?xml version="1.0" standalone="no"?><!DOCTYPE svg PUBLIC "-//W3C//DTD SVG 1.1//EN" "http://www.w3.org/Graphics/SVG/1.1/DTD/svg11.dtd"><svg t="1717035420570" class="icon" viewBox="0 0 1024 1024" version="1.1" xmlns="http://www.w3.org/2000/svg" p-id="7923" xmlns:xlink="http://www.w3.org/1999/xlink" width="32" height="32"><path d="M365.104366 337.817698m-158.057281 37.304907a162.4 162.4 0 1 0 316.114561-74.609815 162.4 162.4 0 1 0-316.114561 74.609815Z" fill="#231815" p-id="7924"></path><path d="M708.903542 421.754961m-50.452984 121.804277a131.84 131.84 0 1 0 100.905967-243.608555 131.84 131.84 0 1 0-100.905967 243.608555Z" fill="#231815" p-id="7925"></path><path d="M937.12 769.6a230.72 230.72 0 0 0-453.6 5.92 26.24 26.24 0 0 0 26.4 29.12h397.6a30.08 30.08 0 0 0 29.6-35.04zM493.12 572.16a279.52 279.52 0 0 0-130.24-32A269.44 269.44 0 0 0 91.68 773.12a27.2 27.2 0 0 0 27.2 29.76H400a27.2 27.2 0 0 0 27.04-24.8 277.28 277.28 0 0 1 72.8-162.88 27.36 27.36 0 0 0-6.72-43.04z" fill="#231815" p-id="7926"></path></svg>