<?xml version="1.0" standalone="no"?><!DOCTYPE svg PUBLIC "-//W3C//DTD SVG 1.1//EN" "http://www.w3.org/Graphics/SVG/1.1/DTD/svg11.dtd"><svg t="1715962297265" class="icon" viewBox="0 0 1024 1024" version="1.1" xmlns="http://www.w3.org/2000/svg" p-id="27049" id="mx_n_1715962297266" xmlns:xlink="http://www.w3.org/1999/xlink" width="32" height="32"><path d="M861.866667 384v256h-260.266667V384h260.266667m34.133333-64h-328.533333c-17.066667 0-29.866667 12.8-29.866667 29.866667v324.266666c0 17.066667 12.8 29.866667 29.866667 29.866667H896c17.066667 0 29.866667-12.8 29.866667-25.6V349.866667c0-17.066667-12.8-29.866667-29.866667-29.866667zM422.4 384v256H162.133333V384h260.266667m34.133333-64H128c-17.066667 0-29.866667 12.8-29.866667 29.866667v324.266666c0 17.066667 12.8 29.866667 29.866667 29.866667h328.533333c12.8 0 25.6-12.8 29.866667-25.6V349.866667c0-17.066667-12.8-29.866667-29.866667-29.866667z" p-id="27050"></path></svg>