<?xml version="1.0" standalone="no"?><!DOCTYPE svg PUBLIC "-//W3C//DTD SVG 1.1//EN" "http://www.w3.org/Graphics/SVG/1.1/DTD/svg11.dtd"><svg t="1713342211944" class="icon" viewBox="0 0 1024 1024" version="1.1" xmlns="http://www.w3.org/2000/svg" p-id="7539" xmlns:xlink="http://www.w3.org/1999/xlink" width="32" height="32"><path d="M874.074353 308.103529l-109.248753 74.071342-23.136376 15.739482V296.020329c0-43.941647-37.622965-79.173271-84.979953-79.17327H157.262306C110.989553 216.847059 72.282353 252.078682 72.282353 296.020329v425.935812C72.282353 765.897788 110.989553 801.129412 157.262306 801.129412h499.446965c47.025694 0 84.979953-35.231624 84.979953-79.173271V621.748706l23.136376 15.739482 109.248753 74.113506c32.545129 22.166588 77.643294 0 77.643294-37.900047V345.768659c-0.096376-37.665129-45.194541-59.355859-77.643294-37.66513z m-195.403294 136.842542v255.036235c-0.054212 21.955765-17.889882 39.749271-39.929977 39.821553h-463.510588c-22.040094-0.072282-39.875765-17.865788-39.929976-39.81553V319.909647c0.054212-21.949741 17.889882-39.743247 39.929976-39.815529h463.697318c22.040094 0.072282 39.875765 17.865788 39.929976 39.815529l-0.186729 125.036424z m211.624659 182.705694a12.504847 12.504847 0 0 1-6.728283 11.023059 12.5952 12.5952 0 0 1-12.926494-0.764989l-132.951341-90.9312V472.822965l133.089882-91.027577a12.5952 12.5952 0 0 1 12.950589-0.752941 12.504847 12.504847 0 0 1 6.710211 11.0592l-0.144564 235.550118zM293.315765 433.983247a75.535059 75.535059 0 0 0-69.806683 46.513694 75.029082 75.029082 0 0 0 16.504471 82.028424 75.739859 75.739859 0 0 0 82.401882 16.124988 75.233882 75.233882 0 0 0 46.429365-69.710306c-0.156612-41.441882-33.924518-74.9568-75.529035-74.9568z" fill="#666666" p-id="7540"></path></svg>