<?xml version="1.0" standalone="no"?><!DOCTYPE svg PUBLIC "-//W3C//DTD SVG 1.1//EN" "http://www.w3.org/Graphics/SVG/1.1/DTD/svg11.dtd"><svg t="1717034448581" class="icon" viewBox="0 0 1205 1024" version="1.1" xmlns="http://www.w3.org/2000/svg" p-id="1482" width="37.65625" height="32" xmlns:xlink="http://www.w3.org/1999/xlink"><path d="M613.313888 1018.90885h-2.71528c-25.116341-1.35764-45.820351-17.988731-51.590322-43.105071L414.080212 154.092145 293.929069 601.095128c-8.48525 22.401061-29.189261 36.316871-52.947962 36.316871H46.838581c-23.758701 0-41.747431-17.988731-41.747431-41.747432 0-23.758701 17.988731-41.747431 41.747431-41.747431h176.153796l143.909844-512.509115c8.48525-23.758701 30.546901-37.674511 55.663241-35.977461 25.116341 1.35764 45.820351 17.988731 51.590322 41.747431L617.726218 864.477295l139.158104-541.019556c6.7882-20.704011 26.473981-35.977461 48.535632-37.674511 22.401061-1.35764 43.105071 9.84289 54.305601 29.189261l87.907193 238.944647h211.452436c23.758701 0 41.747431 17.988731 41.747431 41.747431 0 23.758701-17.988731 41.747431-41.747431 41.747432h-228.083527c-20.704011 0-39.032151-11.20053-48.535631-29.189261l-65.506132-198.554856-150.358634 571.905867c-8.82466 22.061651-29.528671 37.335101-53.287372 37.335101z m0 0" fill="#060001" p-id="1483"></path></svg>