<?xml version="1.0" standalone="no"?><!DOCTYPE svg PUBLIC "-//W3C//DTD SVG 1.1//EN" "http://www.w3.org/Graphics/SVG/1.1/DTD/svg11.dtd"><svg t="1713331385854" class="icon" viewBox="0 0 1024 1024" version="1.1" xmlns="http://www.w3.org/2000/svg" p-id="5985" width="32" height="32" xmlns:xlink="http://www.w3.org/1999/xlink"><path d="M0 0h1024v1024H0z" fill="#FFFFFF" p-id="5986"></path><path d="M552.544 928H128a32 32 0 0 1-32-32V128a32 32 0 0 1 32-32h424.32a32 32 0 0 1 0 64H160v704h392.544a32 32 0 0 1 0 64z" fill="#262626" p-id="5987"></path><path d="M683.744 756.288a32 32 0 0 1-22.624-54.624l189.632-189.632-189.632-189.632a32 32 0 0 1 45.248-45.248l212.256 212.256a32 32 0 0 1 0 45.248l-212.256 212.256a32 32 0 0 1-22.624 9.376z" fill="#262626" p-id="5988"></path><path d="M896 543.84H282.784a32 32 0 1 1 0-64H896a32 32 0 0 1 0 64z" fill="#262626" p-id="5989"></path></svg>