<?xml version="1.0" standalone="no"?><!DOCTYPE svg PUBLIC "-//W3C//DTD SVG 1.1//EN" "http://www.w3.org/Graphics/SVG/1.1/DTD/svg11.dtd"><svg t="1715609582478" class="icon" viewBox="0 0 1024 1024" version="1.1" xmlns="http://www.w3.org/2000/svg" p-id="9343" xmlns:xlink="http://www.w3.org/1999/xlink" width="32" height="32"><path d="M883.575204 860.978897l-10.615327 10.501592a27.069086 27.069086 0 0 1-38.291004 0L139.744031 178.072121a27.675676 27.675676 0 0 1 0-38.253091l10.615327-10.501592a27.069086 27.069086 0 0 1 38.291004 0l694.924842 693.408367a26.95535 26.95535 0 0 1 0 38.253092z m-101.224731-187.853388l-56.109589-55.995853a365.318919 365.318919 0 0 0 49.664568-130.227324s4.170307-63.1612 48.906331-59.370011a36.054202 36.054202 0 0 1 27.675676 44.811848 327.482858 327.482858 0 0 1-70.136986 200.932988zM336.506711 228.077897V171.892484a171.930396 171.930396 0 0 1 343.860793 0v304.129138a169.276564 169.276564 0 0 1-18.197705 76.961125z m0 247.943725v-52.811255l218.372455 217.955423a171.627101 171.627101 0 0 1-218.372455-164.992521z m-147.098112-48.489301c44.356905-5.990078 48.906331 59.370011 48.906331 59.370011s34.120696 249.270641 270.311737 249.270641c-0.379119 14.103221-0.379119 23.050426-0.758238 31.353128h1.137357c0-8.302703-0.379119-17.249907-0.379119-31.353128a259.12773 259.12773 0 0 0 116.010366-25.400963l52.69752 52.621696a341.20696 341.20696 0 0 1-131.933358 42.309663v136.975639h86.059978a40.603628 40.603628 0 0 1 0 81.169344H387.687755a40.603628 40.603628 0 0 1 0-81.169344h83.785265v-136.937727a343.21629 343.21629 0 0 1-310.119215-333.397112 38.366827 38.366827 0 0 1 28.054794-44.6602z" fill="#FF2F51" p-id="9344"></path></svg>